<svg width="600" height="450" viewBox="0 0 600 450" fill="none" xmlns="http://www.w3.org/2000/svg">
<rect width="214.534" height="214.534" rx="15" transform="matrix(0.706678 0.707535 -0.706678 0.707535 208.781 0)" fill="#274E2E"/>
<path d="M450 211C450 202.716 456.716 196 465 196H497C505.284 196 512 202.716 512 211V323C512 331.284 505.284 338 497 338H465C456.716 338 450 331.284 450 323V211Z" fill="#2C2C2C"/>
<path d="M58 329C58 320.716 64.7157 314 73 314H347C355.284 314 362 320.716 362 329V347C362 355.284 355.284 362 347 362H73C64.7157 362 58 355.284 58 347V329Z" fill="#E0F0E3"/>
<path d="M0 438C0 431.373 5.37258 426 12 426H500C506.627 426 512 431.373 512 438V438C512 444.627 506.627 450 500 450H12C5.37258 450 0 444.627 0 438V438Z" fill="#2C2C2C"/>
<path d="M528 438C528 431.373 533.373 426 540 426H588C594.627 426 600 431.373 600 438V438C600 444.627 594.627 450 588 450H540C533.373 450 528 444.627 528 438V438Z" fill="#274E2E"/>
<rect x="214" y="372" width="148" height="46" rx="15" fill="#2C2C2C"/>
<rect x="48" y="116" width="144" height="48" rx="15" transform="rotate(90 48 116)" fill="white"/>
<rect x="450" y="116" width="150" height="72" rx="15" fill="white"/>
<rect x="528" y="260" width="144" height="72" rx="15" transform="rotate(-90 528 260)" fill="white"/>
<rect x="144" y="418" width="144" height="46" rx="15" transform="rotate(-180 144 418)" fill="#204026"/>
<rect x="48" y="276" width="142" height="48" rx="15" transform="rotate(90 48 276)" fill="#204026"/>
<rect x="368" y="348" width="144" height="70" rx="15" fill="white"/>
<rect x="528" y="348" width="72" height="70" rx="15" fill="#274E2E"/>
<rect x="528" y="266" width="72" height="72" rx="15" fill="#E0F0E3"/>
<rect x="368" y="116" width="72" height="72" rx="15" fill="#204026"/>
</svg>
