<svg width="210" height="69" viewBox="0 0 210 69" fill="none" xmlns="http://www.w3.org/2000/svg">
<path d="M22.5833 68.768C18.2953 68.768 14.4873 67.744 11.1593 65.696C7.89525 63.648 5.33525 60.8 3.47925 57.152C1.68725 53.44 0.79125 49.184 0.79125 44.384V24.416C0.79125 19.616 1.68725 15.36 3.47925 11.648C5.33525 7.936 7.92725 5.088 11.2553 3.10399C14.6473 1.056 18.5513 0.0319996 22.9673 0.0319996H33.1433C37.3033 0.0319996 40.9513 0.927999 44.0873 2.72C47.2873 4.512 49.7513 7.04 51.4792 10.304C53.2713 13.568 54.1673 17.312 54.1673 21.536H47.2553C47.2553 16.992 45.9433 13.344 43.3193 10.592C40.7593 7.776 37.3673 6.368 33.1433 6.368H22.9673C18.4233 6.368 14.7753 8.032 12.0233 11.36C9.27125 14.624 7.89525 18.976 7.89525 24.416V44.384C7.89525 49.824 9.23925 54.208 11.9273 57.536C14.6153 60.8 18.1673 62.432 22.5833 62.432H32.9513C37.3033 62.432 40.7913 60.896 43.4153 57.824C46.1033 54.752 47.4473 50.72 47.4473 45.728H54.3593C54.3593 50.272 53.4633 54.304 51.6713 57.824C49.8793 61.28 47.3513 63.968 44.0873 65.888C40.8873 67.808 37.1753 68.768 32.9513 68.768H22.5833ZM65.7023 20.096H72.4223V27.488C73.7023 25.248 75.6223 23.424 78.1823 22.016C80.8063 20.608 83.5263 19.904 86.3423 19.904H90.5663V26.144H86.3423C82.2463 26.144 78.9183 27.456 76.3583 30.08C73.8623 32.64 72.6143 36.064 72.6143 40.352V68H65.7023V20.096ZM112.151 68.768C107.479 68.768 103.735 67.552 100.919 65.12C98.1673 62.688 96.7913 59.424 96.7913 55.328V52.256C96.7913 48.224 98.2313 44.992 101.111 42.56C103.991 40.128 107.799 38.912 112.535 38.912H118.679C120.791 38.912 122.967 39.232 125.207 39.872C127.447 40.512 129.367 41.376 130.967 42.464V34.496C130.967 31.808 130.135 29.632 128.471 27.968C126.807 26.24 124.599 25.376 121.847 25.376H114.167C111.415 25.376 109.207 26.016 107.543 27.296C105.879 28.576 105.047 30.272 105.047 32.384H98.1353C98.1353 28.48 99.6073 25.344 102.551 22.976C105.495 20.544 109.367 19.328 114.167 19.328H121.847C126.583 19.328 130.391 20.736 133.271 23.552C136.215 26.304 137.687 29.952 137.687 34.496V68H131.159V61.28C129.687 63.584 127.735 65.408 125.303 66.752C122.935 68.096 120.471 68.768 117.911 68.768H112.151ZM118.103 62.72C121.111 62.72 123.799 61.792 126.167 59.936C128.535 58.08 130.135 55.616 130.967 52.544V48.992C129.687 47.776 127.895 46.816 125.591 46.112C123.351 45.344 121.047 44.96 118.679 44.96H112.535C109.911 44.96 107.767 45.632 106.103 46.976C104.503 48.32 103.703 50.08 103.703 52.256V55.328C103.703 57.568 104.471 59.36 106.007 60.704C107.543 62.048 109.591 62.72 112.151 62.72H118.103ZM155.909 26.24H147.653V20.096H155.909V16.352C155.909 11.104 157.253 7.136 159.941 4.44799C162.629 1.75999 166.565 0.415995 171.749 0.415995H175.397V6.368H171.749C168.677 6.368 166.405 7.2 164.933 8.86399C163.525 10.464 162.821 12.96 162.821 16.352V20.096H174.341V26.24H162.821V68H155.909V26.24ZM204.425 68C199.369 68 195.721 66.912 193.481 64.736C191.305 62.56 190.217 58.976 190.217 53.984V26.24H181.769V20.096H190.217V5.6H197.129V20.096H209.609V26.24H197.129V53.984C197.129 56.8 197.673 58.816 198.761 60.032C199.913 61.248 201.801 61.856 204.425 61.856H209.609V68H204.425Z" fill="white"/>
</svg>
