<svg width="398" height="69" viewBox="0 0 398 69" fill="none" xmlns="http://www.w3.org/2000/svg">
<path d="M18.0553 68C16.2633 68 14.8553 67.52 13.8313 66.56C12.8073 65.536 12.1033 63.936 11.7193 61.76L0.29525 0.799995H7.30325L17.7673 58.784H17.8633L34.7593 4.352H37.7353C38.8873 4.352 39.8153 4.704 40.5193 5.408C41.2233 6.048 41.7993 7.072 42.2473 8.48L57.2233 58.784H57.3193L67.7833 0.799995H74.7913L63.3673 61.76C62.9833 63.936 62.2793 65.536 61.2553 66.56C60.2313 67.52 58.8233 68 57.0312 68H54.1513L37.8313 13.856H37.7353L20.9353 68H18.0553ZM97.7945 68.768C92.4185 68.768 88.0985 67.2 84.8345 64.064C81.5705 60.864 79.9385 56.64 79.9385 51.392V37.664C79.9385 32.16 81.5705 27.744 84.8345 24.416C88.0985 21.024 92.4185 19.328 97.7945 19.328H105.667C110.787 19.328 114.915 20.96 118.051 24.224C121.187 27.488 122.755 31.808 122.755 37.184V45.632H86.8505V51.392C86.8505 54.72 87.8425 57.44 89.8265 59.552C91.8745 61.6 94.5305 62.624 97.7945 62.624H105.091C108.291 62.624 110.883 61.76 112.867 60.032C114.851 58.24 115.843 55.872 115.843 52.928H122.562C122.562 57.664 120.963 61.504 117.763 64.448C114.563 67.328 110.339 68.768 105.091 68.768H97.7945ZM115.843 39.68V37.184C115.843 33.664 114.915 30.848 113.059 28.736C111.203 26.56 108.739 25.472 105.667 25.472H97.7945C94.5305 25.472 91.8745 26.592 89.8265 28.832C87.8425 31.072 86.8505 34.016 86.8505 37.664V39.68H115.843ZM153.739 68.768C151.627 68.768 149.387 68.128 147.019 66.848C144.651 65.504 142.827 63.84 141.547 61.856V68H134.827V0.799995H141.739V25.76C143.147 23.776 144.939 22.208 147.115 21.056C149.355 19.904 151.659 19.328 154.027 19.328H160.843C164.107 19.328 166.987 20.096 169.483 21.632C172.043 23.104 174.027 25.216 175.435 27.968C176.907 30.656 177.643 33.76 177.643 37.28V49.664C177.643 53.44 176.907 56.768 175.435 59.648C174.027 62.528 172.011 64.768 169.387 66.368C166.827 67.968 163.851 68.768 160.459 68.768H153.739ZM160.267 62.624C163.339 62.624 165.835 61.44 167.755 59.072C169.739 56.64 170.731 53.504 170.731 49.664V37.28C170.731 33.76 169.771 30.912 167.851 28.736C165.995 26.56 163.595 25.472 160.651 25.472H154.219C150.891 25.472 148.043 26.688 145.675 29.12C143.307 31.552 141.995 34.752 141.739 38.72V50.432C141.867 52.672 142.507 54.72 143.659 56.576C144.811 58.432 146.283 59.904 148.075 60.992C149.867 62.08 151.755 62.624 153.739 62.624H160.267Z" fill="#74C313"/>
<path d="M210.583 68.768C206.295 68.768 202.487 67.744 199.159 65.696C195.895 63.648 193.335 60.8 191.479 57.152C189.687 53.44 188.791 49.184 188.791 44.384V24.416C188.791 19.616 189.687 15.36 191.479 11.648C193.335 7.936 195.927 5.088 199.255 3.10399C202.647 1.056 206.551 0.0319996 210.967 0.0319996H221.143C225.303 0.0319996 228.951 0.927999 232.087 2.72C235.287 4.512 237.751 7.04 239.479 10.304C241.271 13.568 242.167 17.312 242.167 21.536H235.255C235.255 16.992 233.943 13.344 231.319 10.592C228.759 7.776 225.367 6.368 221.143 6.368H210.967C206.423 6.368 202.775 8.032 200.023 11.36C197.271 14.624 195.895 18.976 195.895 24.416V44.384C195.895 49.824 197.239 54.208 199.927 57.536C202.615 60.8 206.167 62.432 210.583 62.432H220.951C225.303 62.432 228.791 60.896 231.415 57.824C234.103 54.752 235.447 50.72 235.447 45.728H242.359C242.359 50.272 241.463 54.304 239.671 57.824C237.879 61.28 235.351 63.968 232.087 65.888C228.887 67.808 225.175 68.768 220.951 68.768H210.583ZM253.702 20.096H260.422V27.488C261.702 25.248 263.622 23.424 266.182 22.016C268.806 20.608 271.526 19.904 274.342 19.904H278.566V26.144H274.342C270.246 26.144 266.918 27.456 264.358 30.08C261.862 32.64 260.614 36.064 260.614 40.352V68H253.702V20.096ZM300.151 68.768C295.479 68.768 291.735 67.552 288.919 65.12C286.167 62.688 284.791 59.424 284.791 55.328V52.256C284.791 48.224 286.231 44.992 289.111 42.56C291.991 40.128 295.799 38.912 300.535 38.912H306.679C308.791 38.912 310.967 39.232 313.207 39.872C315.447 40.512 317.367 41.376 318.967 42.464V34.496C318.967 31.808 318.135 29.632 316.471 27.968C314.807 26.24 312.599 25.376 309.847 25.376H302.167C299.415 25.376 297.207 26.016 295.543 27.296C293.879 28.576 293.047 30.272 293.047 32.384H286.135C286.135 28.48 287.607 25.344 290.551 22.976C293.495 20.544 297.367 19.328 302.167 19.328H309.847C314.583 19.328 318.391 20.736 321.271 23.552C324.215 26.304 325.687 29.952 325.687 34.496V68H319.159V61.28C317.687 63.584 315.735 65.408 313.303 66.752C310.935 68.096 308.471 68.768 305.911 68.768H300.151ZM306.103 62.72C309.111 62.72 311.799 61.792 314.167 59.936C316.535 58.08 318.135 55.616 318.967 52.544V48.992C317.687 47.776 315.895 46.816 313.591 46.112C311.351 45.344 309.047 44.96 306.679 44.96H300.535C297.911 44.96 295.767 45.632 294.103 46.976C292.503 48.32 291.703 50.08 291.703 52.256V55.328C291.703 57.568 292.471 59.36 294.007 60.704C295.543 62.048 297.591 62.72 300.151 62.72H306.103ZM343.909 26.24H335.653V20.096H343.909V16.352C343.909 11.104 345.253 7.136 347.941 4.44799C350.629 1.75999 354.565 0.415995 359.749 0.415995H363.397V6.368H359.749C356.677 6.368 354.405 7.2 352.933 8.86399C351.525 10.464 350.821 12.96 350.821 16.352V20.096H362.341V26.24H350.821V68H343.909V26.24ZM392.425 68C387.369 68 383.721 66.912 381.481 64.736C379.305 62.56 378.217 58.976 378.217 53.984V26.24H369.769V20.096H378.217V5.6H385.129V20.096H397.609V26.24H385.129V53.984C385.129 56.8 385.673 58.816 386.761 60.032C387.913 61.248 389.801 61.856 392.425 61.856H397.609V68H392.425Z" fill="#252525"/>
</svg>
