<svg width="1407" height="262" viewBox="0 0 1407 262" fill="none" xmlns="http://www.w3.org/2000/svg">
<path d="M563.063 7.02044C562.912 5.81226 562.791 5.6915 561.552 5.51022C562.761 5.35907 562.882 5.2383 563.063 4C563.214 5.20818 563.335 5.32894 564.574 5.51022C563.365 5.66111 563.245 5.81226 563.063 7.02044Z" fill="#FFD700" fill-opacity="0.1"/>
<path d="M479.465 250.806C479.314 249.598 479.193 249.477 477.954 249.296C479.163 249.145 479.284 249.024 479.465 247.786C479.616 248.994 479.737 249.114 480.976 249.296C479.767 249.447 479.647 249.598 479.465 250.806Z" fill="#FFD700" fill-opacity="0.1"/>
<path d="M492.782 84.3301C492.631 83.122 492.51 83.0012 491.271 82.8199C492.48 82.6688 492.6 82.548 492.782 81.3097C492.933 82.5179 493.054 82.6386 494.293 82.8199C493.084 82.9708 492.963 83.122 492.782 84.3301Z" fill="#FFD700" fill-opacity="0.1"/>
<path d="M578.229 189.383C578.078 188.174 577.957 188.054 576.718 187.872C577.927 187.721 578.048 187.6 578.229 186.362C578.38 187.57 578.501 187.691 579.74 187.872C578.531 188.023 578.411 188.174 578.229 189.383Z" fill="#FFD700" fill-opacity="0.1"/>
<path d="M454.236 5.11756C454.236 5.73477 453.736 6.2351 453.118 6.2351C452.5 6.2351 452 5.73477 452 5.11756C452 4.50036 452.5 4 453.118 4C453.736 4 454.236 4.50036 454.236 5.11756Z" fill="#FFD700" fill-opacity="0.1"/>
<path d="M669.951 98.7029C669.951 99.32 669.45 99.8205 668.832 99.8205C668.215 99.8205 667.714 99.32 667.714 98.7029C667.714 98.0856 668.215 97.5854 668.832 97.5854C669.45 97.5854 669.951 98.0856 669.951 98.7029Z" fill="#FFD700" fill-opacity="0.1"/>
<path d="M515.895 149.22C515.895 149.837 515.395 150.337 514.777 150.337C514.16 150.337 513.659 149.837 513.659 149.22C513.659 148.602 514.16 148.102 514.777 148.102C515.395 148.102 515.895 148.602 515.895 149.22Z" fill="#FFD700" fill-opacity="0.1"/>
<path d="M521.25 252.583C521.25 253.2 520.749 253.7 520.131 253.7C519.514 253.7 519.013 253.2 519.013 252.583C519.013 251.965 519.514 251.465 520.131 251.465C520.749 251.465 521.25 251.965 521.25 252.583Z" fill="#FFD700" fill-opacity="0.1"/>
<path d="M536.724 192.287C536.724 192.904 536.223 193.405 535.605 193.405C534.988 193.405 534.487 192.904 534.487 192.287C534.487 191.67 534.988 191.17 535.605 191.17C536.223 191.17 536.724 191.67 536.724 192.287Z" fill="#FFD700" fill-opacity="0.1"/>
<path d="M743.388 17.0645C742.381 17.5102 741.202 17.0552 740.757 16.0485C740.311 15.0419 740.766 13.8644 741.773 13.4187C742.78 12.973 743.958 13.4278 744.404 14.4347C744.85 15.4413 744.395 16.6186 743.388 17.0645Z" fill="#FFD700" fill-opacity="0.15"/>
<path d="M589.215 33.7362C589.215 34.8371 588.322 35.7296 587.221 35.7296C586.119 35.7296 585.226 34.8371 585.226 33.7362C585.226 32.6352 586.119 31.7427 587.221 31.7427C588.322 31.7427 589.215 32.6352 589.215 33.7362Z" fill="#FFD700" fill-opacity="0.15"/>
<path d="M737.332 82.1235C736.553 82.9019 735.29 82.9019 734.511 82.1235C733.732 81.3449 733.732 80.0827 734.511 79.3044C735.29 78.5257 736.553 78.5257 737.332 79.3044C738.111 80.0827 738.111 81.3449 737.332 82.1235Z" fill="#FFD700" fill-opacity="0.15"/>
<path d="M712.119 32.8602C712.119 33.4773 711.619 33.9777 711.001 33.9777C710.384 33.9777 709.883 33.4773 709.883 32.8602C709.883 32.2429 710.384 31.7427 711.001 31.7427C711.619 31.7427 712.119 32.2429 712.119 32.8602Z" fill="#FFD700" fill-opacity="0.15"/>
<path d="M618.904 149.38C618.904 149.997 618.403 150.497 617.786 150.497C617.168 150.497 616.668 149.997 616.668 149.38C616.668 148.762 617.168 148.262 617.786 148.262C618.403 148.262 618.904 148.762 618.904 149.38Z" fill="#FFD700" fill-opacity="0.15"/>
<path d="M556.405 75.0826C556.254 73.8744 556.133 73.7536 554.894 73.5724C556.103 73.4212 556.224 73.3004 556.405 72.0621C556.556 73.2703 556.677 73.3911 557.916 73.5724C556.707 73.7232 556.586 73.8744 556.405 75.0826Z" fill="#FFD700" fill-opacity="0.1"/>
<path d="M661.765 26.9939C661.614 25.7857 661.494 25.6649 660.255 25.4837C661.463 25.3325 661.584 25.2118 661.765 23.9734C661.917 25.1816 662.037 25.3024 663.276 25.4837C662.068 25.6346 661.947 25.7857 661.765 26.9939Z" fill="#FFD700" fill-opacity="0.1"/>
<path d="M585.196 153.131C585.044 151.923 584.924 151.802 583.685 151.621C584.893 151.469 585.014 151.349 585.196 150.11C585.347 151.319 585.468 151.439 586.706 151.621C585.498 151.771 585.377 151.923 585.196 153.131Z" fill="#FFD700" fill-opacity="0.1"/>
<path d="M517.503 38.091C517.352 36.8828 517.231 36.7621 515.992 36.5808C517.201 36.4296 517.322 36.3089 517.503 35.0706C517.654 36.2787 517.775 36.3995 519.014 36.5808C517.805 36.7317 517.685 36.8828 517.503 38.091Z" fill="#FFD700" fill-opacity="0.1"/>
<path d="M499.659 61.2019C499.81 59.9937 499.931 59.873 501.17 59.6917C499.961 59.5405 499.841 59.4198 499.659 58.1815C499.508 59.3896 499.387 59.5104 498.148 59.6917C499.357 59.8426 499.478 59.9937 499.659 61.2019Z" fill="#FFD700" fill-opacity="0.1"/>
<path d="M583.303 203.362C583.454 202.154 583.575 202.033 584.814 201.852C583.605 201.701 583.484 201.58 583.303 200.341C583.152 201.55 583.031 201.67 581.792 201.852C583.001 202.003 583.122 202.154 583.303 203.362Z" fill="#FFD700" fill-opacity="0.1"/>
<path d="M487.063 195.025C487.214 193.816 487.335 193.696 488.574 193.514C487.366 193.363 487.245 193.243 487.063 192.004C486.912 193.212 486.791 193.333 485.552 193.514C486.761 193.665 486.882 193.816 487.063 195.025Z" fill="#FFD700" fill-opacity="0.1"/>
<path d="M322.232 103.139C322.383 101.931 322.504 101.81 323.743 101.629C322.534 101.478 322.413 101.357 322.232 100.119C322.081 101.327 321.96 101.448 320.721 101.629C321.93 101.78 322.05 101.931 322.232 103.139Z" fill="#FFD700" fill-opacity="0.1"/>
<path d="M410.944 7.19573C411.095 5.98756 411.216 5.86679 412.455 5.68551C411.247 5.53436 411.126 5.41359 410.944 4.17529C410.793 5.38347 410.672 5.50423 409.433 5.68551C410.642 5.83641 410.763 5.98756 410.944 7.19573Z" fill="#FFD700" fill-opacity="0.1"/>
<path d="M430.153 53.2026C430.153 53.8198 430.654 54.3202 431.271 54.3202C431.889 54.3202 432.389 53.8198 432.389 53.2026C432.389 52.5854 431.889 52.0851 431.271 52.0851C430.654 52.0851 430.153 52.5854 430.153 53.2026Z" fill="#FFD700" fill-opacity="0.1"/>
<path d="M264.062 161.068C264.062 161.685 264.562 162.185 265.18 162.185C265.797 162.185 266.298 161.685 266.298 161.068C266.298 160.45 265.797 159.95 265.18 159.95C264.562 159.95 264.062 160.45 264.062 161.068Z" fill="#FFD700" fill-opacity="0.1"/>
<path d="M520.774 85.6073C520.774 86.2244 521.275 86.7248 521.892 86.7248C522.51 86.7248 523.01 86.2244 523.01 85.6073C523.01 84.99 522.51 84.4897 521.892 84.4897C521.275 84.4897 520.774 84.99 520.774 85.6073Z" fill="#FFD700" fill-opacity="0.1"/>
<path d="M309.595 3.11754C309.595 3.73461 310.096 4.23508 310.713 4.23508C311.331 4.23508 311.832 3.73461 311.832 3.11754C311.832 2.50021 311.331 2 310.713 2C310.096 2 309.595 2.50021 309.595 3.11754Z" fill="#FFD700" fill-opacity="0.1"/>
<path d="M547.407 128.886C547.407 129.503 547.908 130.003 548.526 130.003C549.143 130.003 549.644 129.503 549.644 128.886C549.644 128.269 549.143 127.768 548.526 127.768C547.908 127.768 547.407 128.269 547.407 128.886Z" fill="#FFD700" fill-opacity="0.1"/>
<path d="M512.618 218.133C512.618 218.751 513.119 219.251 513.736 219.251C514.354 219.251 514.854 218.751 514.854 218.133C514.854 217.516 514.354 217.016 513.736 217.016C513.119 217.016 512.618 217.516 512.618 218.133Z" fill="#FFD700" fill-opacity="0.1"/>
<path d="M492.6 109.651C492.6 110.268 493.1 110.769 493.718 110.769C494.335 110.769 494.836 110.268 494.836 109.651C494.836 109.034 494.335 108.534 493.718 108.534C493.1 108.534 492.6 109.034 492.6 109.651Z" fill="#FFD700" fill-opacity="0.1"/>
<path d="M508.275 153.136C509.283 153.582 510.461 153.127 510.907 152.12C511.352 151.114 510.897 149.936 509.89 149.49C508.883 149.045 507.705 149.5 507.259 150.506C506.813 151.513 507.268 152.69 508.275 153.136Z" fill="#FFD700" fill-opacity="0.15"/>
<path d="M361.571 147.59C361.571 148.691 362.464 149.584 363.566 149.584C364.667 149.584 365.56 148.691 365.56 147.59C365.56 146.489 364.667 145.597 363.566 145.597C362.464 145.597 361.571 146.489 361.571 147.59Z" fill="#FFD700" fill-opacity="0.15"/>
<path d="M427.711 114.624C428.49 115.402 429.753 115.402 430.532 114.624C431.311 113.845 431.311 112.583 430.532 111.805C429.753 111.026 428.49 111.026 427.711 111.805C426.932 112.583 426.932 113.845 427.711 114.624Z" fill="#FFD700" fill-opacity="0.15"/>
<path d="M499.628 11.9969C499.628 12.614 500.128 13.1145 500.746 13.1145C501.364 13.1145 501.864 12.614 501.864 11.9969C501.864 11.3796 501.364 10.8794 500.746 10.8794C500.128 10.8794 499.628 11.3796 499.628 11.9969Z" fill="#FFD700" fill-opacity="0.15"/>
<path d="M377.252 43.068C377.252 43.6851 377.752 44.1856 378.37 44.1856C378.987 44.1856 379.488 43.6851 379.488 43.068C379.488 42.4507 378.987 41.9505 378.37 41.9505C377.752 41.9505 377.252 42.4507 377.252 43.068Z" fill="#FFD700" fill-opacity="0.15"/>
<path d="M365.674 217.061C365.825 215.852 365.946 215.732 367.185 215.55C365.976 215.399 365.856 215.278 365.674 214.04C365.523 215.248 365.402 215.369 364.163 215.55C365.372 215.701 365.493 215.852 365.674 217.061Z" fill="#FFD700" fill-opacity="0.1"/>
<path d="M278.149 74.148C278.3 72.9398 278.421 72.8191 279.66 72.6378C278.451 72.4866 278.331 72.3659 278.149 71.1276C277.998 72.3357 277.877 72.4565 276.638 72.6378C277.847 72.7887 277.968 72.9398 278.149 74.148Z" fill="#FFD700" fill-opacity="0.1"/>
<path d="M222.511 126.768C222.662 125.56 222.783 125.439 224.022 125.258C222.813 125.107 222.692 124.986 222.511 123.747C222.36 124.956 222.239 125.076 221 125.258C222.209 125.409 222.33 125.56 222.511 126.768Z" fill="#FFD700" fill-opacity="0.1"/>
<path d="M286.512 246.68C286.663 247.888 286.784 248.009 288.023 248.19C286.814 248.341 286.694 248.462 286.512 249.7C286.361 248.492 286.24 248.371 285.001 248.19C286.21 248.039 286.331 247.888 286.512 246.68Z" fill="#FFD700" fill-opacity="0.1"/>
<path d="M370.11 2.89435C370.261 4.10253 370.382 4.2233 371.621 4.40457C370.412 4.55573 370.291 4.67649 370.11 5.91479C369.959 4.70662 369.838 4.58585 368.599 4.40457C369.808 4.25368 369.929 4.10253 370.11 2.89435Z" fill="#FFD700" fill-opacity="0.1"/>
<path d="M356.794 169.37C356.945 170.578 357.066 170.699 358.305 170.88C357.096 171.032 356.975 171.152 356.794 172.391C356.643 171.182 356.522 171.062 355.283 170.88C356.491 170.73 356.612 170.578 356.794 169.37Z" fill="#FFD700" fill-opacity="0.1"/>
<path d="M271.346 64.3178C271.497 65.526 271.618 65.6468 272.857 65.828C271.648 65.9792 271.527 66.1 271.346 67.3383C271.195 66.1301 271.074 66.0093 269.835 65.828C271.044 65.6771 271.165 65.526 271.346 64.3178Z" fill="#FFD700" fill-opacity="0.1"/>
<path d="M395.339 248.583C395.339 247.966 395.84 247.465 396.457 247.465C397.075 247.465 397.575 247.966 397.575 248.583C397.575 249.2 397.075 249.7 396.457 249.7C395.84 249.7 395.339 249.2 395.339 248.583Z" fill="#FFD700" fill-opacity="0.1"/>
<path d="M179.625 154.997C179.625 154.38 180.125 153.88 180.743 153.88C181.36 153.88 181.861 154.38 181.861 154.997C181.861 155.615 181.36 156.115 180.743 156.115C180.125 156.115 179.625 155.615 179.625 154.997Z" fill="#FFD700" fill-opacity="0.1"/>
<path d="M333.68 104.481C333.68 103.864 334.181 103.363 334.798 103.363C335.416 103.363 335.916 103.864 335.916 104.481C335.916 105.098 335.416 105.598 334.798 105.598C334.181 105.598 333.68 105.098 333.68 104.481Z" fill="#FFD700" fill-opacity="0.1"/>
<path d="M328.326 1.11776C328.326 0.500427 328.826 -4.0556e-05 329.444 -4.0583e-05C330.061 -4.061e-05 330.562 0.500427 330.562 1.11776C330.562 1.73483 330.061 2.23529 329.444 2.23529C328.826 2.23529 328.326 1.73483 328.326 1.11776Z" fill="#FFD700" fill-opacity="0.1"/>
<path d="M312.852 61.4132C312.852 60.7961 313.352 60.2956 313.97 60.2956C314.587 60.2956 315.088 60.7961 315.088 61.4132C315.088 62.0305 314.587 62.5307 313.97 62.5307C313.352 62.5307 312.852 62.0305 312.852 61.4132Z" fill="#FFD700" fill-opacity="0.1"/>
<path d="M106.188 236.636C107.195 236.19 108.373 236.645 108.819 237.652C109.265 238.658 108.81 239.836 107.802 240.282C106.795 240.727 105.617 240.272 105.171 239.266C104.725 238.259 105.181 237.082 106.188 236.636Z" fill="#FFD700" fill-opacity="0.15"/>
<path d="M260.36 219.964C260.36 218.863 261.253 217.971 262.355 217.971C263.456 217.971 264.349 218.863 264.349 219.964C264.349 221.065 263.456 221.958 262.355 221.958C261.253 221.958 260.36 221.065 260.36 219.964Z" fill="#FFD700" fill-opacity="0.15"/>
<path d="M112.244 171.577C113.022 170.798 114.285 170.798 115.064 171.577C115.843 172.355 115.843 173.618 115.064 174.396C114.285 175.175 113.022 175.175 112.244 174.396C111.465 173.618 111.465 172.355 112.244 171.577Z" fill="#FFD700" fill-opacity="0.15"/>
<path d="M137.456 220.84C137.456 220.223 137.956 219.723 138.574 219.723C139.192 219.723 139.692 220.223 139.692 220.84C139.692 221.457 139.192 221.958 138.574 221.958C137.956 221.958 137.456 221.457 137.456 220.84Z" fill="#FFD700" fill-opacity="0.15"/>
<path d="M230.671 104.321C230.671 103.704 231.172 103.203 231.789 103.203C232.407 103.203 232.908 103.704 232.908 104.321C232.908 104.938 232.407 105.438 231.789 105.438C231.172 105.438 230.671 104.938 230.671 104.321Z" fill="#FFD700" fill-opacity="0.15"/>
<path d="M293.17 178.618C293.321 179.826 293.442 179.947 294.681 180.128C293.473 180.279 293.352 180.4 293.17 181.638C293.019 180.43 292.898 180.309 291.659 180.128C292.868 179.977 292.989 179.826 293.17 178.618Z" fill="#FFD700" fill-opacity="0.1"/>
<path d="M187.81 226.706C187.961 227.915 188.082 228.035 189.321 228.217C188.112 228.368 187.991 228.489 187.81 229.727C187.659 228.519 187.538 228.398 186.299 228.217C187.508 228.066 187.629 227.915 187.81 226.706Z" fill="#FFD700" fill-opacity="0.1"/>
<path d="M264.38 100.569C264.531 101.778 264.652 101.898 265.891 102.08C264.682 102.231 264.561 102.352 264.38 103.59C264.229 102.382 264.108 102.261 262.869 102.08C264.078 101.929 264.198 101.778 264.38 100.569Z" fill="#FFD700" fill-opacity="0.1"/>
<path d="M332.072 215.609C332.223 216.817 332.344 216.938 333.583 217.12C332.374 217.271 332.253 217.391 332.072 218.63C331.921 217.422 331.8 217.301 330.561 217.12C331.77 216.969 331.891 216.817 332.072 215.609Z" fill="#FFD700" fill-opacity="0.1"/>
<path d="M276.657 202.117C276.808 203.325 276.929 203.446 278.168 203.627C276.959 203.778 276.838 203.899 276.657 205.137C276.506 203.929 276.385 203.809 275.146 203.627C276.355 203.476 276.475 203.325 276.657 202.117Z" fill="#FFD700" fill-opacity="0.1"/>
<path d="M360.301 59.957C360.452 61.1652 360.573 61.286 361.812 61.4673C360.603 61.6184 360.482 61.7392 360.301 62.9775C360.15 61.7693 360.029 61.6485 358.79 61.4673C359.998 61.3164 360.119 61.1652 360.301 59.957Z" fill="#FFD700" fill-opacity="0.1"/>
<path d="M264.061 68.2943C264.212 69.5024 264.333 69.6232 265.572 69.8045C264.363 69.9556 264.242 70.0764 264.061 71.3147C263.91 70.1065 263.789 69.9858 262.55 69.8045C263.759 69.6536 263.88 69.5024 264.061 68.2943Z" fill="#FFD700" fill-opacity="0.1"/>
<path d="M64.7643 2.00007C64.9154 3.20824 65.0363 3.32901 66.2753 3.51029C65.0665 3.66144 64.9456 3.78221 64.7643 5.02051C64.6132 3.81233 64.4923 3.69157 63.2533 3.51029C64.4621 3.3594 64.583 3.20824 64.7643 2.00007Z" fill="#FFD700" fill-opacity="0.1"/>
<path d="M187.942 256.123C188.093 257.331 188.214 257.452 189.453 257.633C188.244 257.785 188.123 257.905 187.942 259.144C187.791 257.935 187.67 257.815 186.431 257.633C187.64 257.483 187.761 257.331 187.942 256.123Z" fill="#FFD700" fill-opacity="0.1"/>
<path d="M207.151 210.116C207.151 209.499 207.651 208.999 208.269 208.999C208.886 208.999 209.387 209.499 209.387 210.116C209.387 210.733 208.886 211.234 208.269 211.234C207.651 211.234 207.151 210.733 207.151 210.116Z" fill="#FFD700" fill-opacity="0.1"/>
<path d="M41.0592 102.251C41.0592 101.634 41.5596 101.134 42.1772 101.134C42.7948 101.134 43.2953 101.634 43.2953 102.251C43.2953 102.869 42.7948 103.369 42.1772 103.369C41.5596 103.369 41.0592 102.869 41.0592 102.251Z" fill="#FFD700" fill-opacity="0.1"/>
<path d="M297.772 177.712C297.772 177.095 298.273 176.594 298.89 176.594C299.507 176.594 300.008 177.095 300.008 177.712C300.008 178.329 299.507 178.829 298.89 178.829C298.273 178.829 297.772 178.329 297.772 177.712Z" fill="#FFD700" fill-opacity="0.1"/>
<path d="M86.5928 260.201C86.5928 259.584 87.0935 259.084 87.7111 259.084C88.3284 259.084 88.8292 259.584 88.8292 260.201C88.8292 260.819 88.3284 261.319 87.7111 261.319C87.0935 261.319 86.5928 260.819 86.5928 260.201Z" fill="#FFD700" fill-opacity="0.1"/>
<path d="M324.405 134.433C324.405 133.816 324.906 133.316 325.523 133.316C326.14 133.316 326.641 133.816 326.641 134.433C326.641 135.05 326.14 135.551 325.523 135.551C324.906 135.551 324.405 135.05 324.405 134.433Z" fill="#FFD700" fill-opacity="0.1"/>
<path d="M289.616 45.1856C289.616 44.5682 290.116 44.0678 290.734 44.0678C291.351 44.0678 291.852 44.5682 291.852 45.1856C291.852 45.8026 291.351 46.3031 290.734 46.3031C290.116 46.3031 289.616 45.8026 289.616 45.1856Z" fill="#FFD700" fill-opacity="0.1"/>
<path d="M269.597 153.668C269.597 153.051 270.098 152.55 270.715 152.55C271.333 152.55 271.833 153.051 271.833 153.668C271.833 154.285 271.333 154.785 270.715 154.785C270.098 154.785 269.597 154.285 269.597 153.668Z" fill="#FFD700" fill-opacity="0.1"/>
<path d="M285.273 110.183C286.28 109.737 287.458 110.192 287.904 111.199C288.35 112.205 287.895 113.383 286.888 113.829C285.881 114.274 284.702 113.819 284.257 112.813C283.811 111.806 284.266 110.629 285.273 110.183Z" fill="#FFD700" fill-opacity="0.15"/>
<path d="M138.569 115.729C138.569 114.628 139.462 113.735 140.563 113.735C141.665 113.735 142.558 114.628 142.558 115.729C142.558 116.83 141.665 117.722 140.563 117.722C139.462 117.722 138.569 116.83 138.569 115.729Z" fill="#FFD700" fill-opacity="0.15"/>
<path d="M204.709 148.695C205.488 147.917 206.75 147.917 207.529 148.695C208.308 149.474 208.308 150.736 207.529 151.514C206.75 152.293 205.488 152.293 204.709 151.514C203.93 150.736 203.93 149.474 204.709 148.695Z" fill="#FFD700" fill-opacity="0.15"/>
<path d="M276.626 251.322C276.626 250.705 277.126 250.204 277.744 250.204C278.361 250.204 278.862 250.705 278.862 251.322C278.862 251.939 278.361 252.44 277.744 252.44C277.126 252.44 276.626 251.939 276.626 251.322Z" fill="#FFD700" fill-opacity="0.15"/>
<path d="M154.249 220.251C154.249 219.634 154.75 219.133 155.367 219.133C155.985 219.133 156.486 219.634 156.486 220.251C156.486 220.868 155.985 221.368 155.367 221.368C154.75 221.368 154.249 220.868 154.249 220.251Z" fill="#FFD700" fill-opacity="0.15"/>
<path d="M142.672 46.2584C142.823 47.4666 142.944 47.5874 144.183 47.7686C142.974 47.9198 142.853 48.0406 142.672 49.2789C142.521 48.0707 142.4 47.9499 141.161 47.7686C142.37 47.6178 142.491 47.4666 142.672 46.2584Z" fill="#FFD700" fill-opacity="0.1"/>
<path d="M55.1469 189.171C55.298 190.379 55.4188 190.5 56.6578 190.681C55.4491 190.832 55.3282 190.953 55.1469 192.191C54.9958 190.983 54.8749 190.862 53.6359 190.681C54.8447 190.53 54.9656 190.379 55.1469 189.171Z" fill="#FFD700" fill-opacity="0.1"/>
<path d="M1.51094 36.0311C1.66204 37.2393 1.78291 37.3601 3.02191 37.5414C1.81314 37.6925 1.69227 37.8133 1.51094 39.0516C1.35986 37.8434 1.23897 37.7226 -8.11591e-06 37.5414C1.20877 37.3905 1.32963 37.2393 1.51094 36.0311Z" fill="#FFD700" fill-opacity="0.1"/>
<path d="M1225.06 7.02044C1224.91 5.81226 1224.79 5.6915 1223.55 5.51022C1224.76 5.35907 1224.88 5.2383 1225.06 4C1225.21 5.20818 1225.34 5.32894 1226.57 5.51022C1225.37 5.66111 1225.24 5.81226 1225.06 7.02044Z" fill="#FFD700" fill-opacity="0.1"/>
<path d="M1141.47 250.806C1141.31 249.598 1141.19 249.477 1139.95 249.296C1141.16 249.145 1141.28 249.024 1141.47 247.786C1141.62 248.994 1141.74 249.114 1142.98 249.296C1141.77 249.447 1141.65 249.598 1141.47 250.806Z" fill="#FFD700" fill-opacity="0.1"/>
<path d="M1154.78 84.3301C1154.63 83.122 1154.51 83.0012 1153.27 82.8199C1154.48 82.6688 1154.6 82.548 1154.78 81.3097C1154.93 82.5179 1155.05 82.6386 1156.29 82.8199C1155.08 82.9708 1154.96 83.122 1154.78 84.3301Z" fill="#FFD700" fill-opacity="0.1"/>
<path d="M1240.23 189.383C1240.08 188.174 1239.96 188.054 1238.72 187.872C1239.93 187.721 1240.05 187.6 1240.23 186.362C1240.38 187.57 1240.5 187.691 1241.74 187.872C1240.53 188.023 1240.41 188.174 1240.23 189.383Z" fill="#FFD700" fill-opacity="0.1"/>
<path d="M1116.24 5.11756C1116.24 5.73477 1115.74 6.2351 1115.12 6.2351C1114.5 6.2351 1114 5.73477 1114 5.11756C1114 4.50036 1114.5 4 1115.12 4C1115.74 4 1116.24 4.50036 1116.24 5.11756Z" fill="#FFD700" fill-opacity="0.1"/>
<path d="M1331.95 98.7029C1331.95 99.32 1331.45 99.8205 1330.83 99.8205C1330.22 99.8205 1329.71 99.32 1329.71 98.7029C1329.71 98.0856 1330.22 97.5854 1330.83 97.5854C1331.45 97.5854 1331.95 98.0856 1331.95 98.7029Z" fill="#FFD700" fill-opacity="0.1"/>
<path d="M1177.9 149.22C1177.9 149.837 1177.39 150.337 1176.78 150.337C1176.16 150.337 1175.66 149.837 1175.66 149.22C1175.66 148.602 1176.16 148.102 1176.78 148.102C1177.39 148.102 1177.9 148.602 1177.9 149.22Z" fill="#FFD700" fill-opacity="0.1"/>
<path d="M1183.25 252.583C1183.25 253.2 1182.75 253.7 1182.13 253.7C1181.51 253.7 1181.01 253.2 1181.01 252.583C1181.01 251.965 1181.51 251.465 1182.13 251.465C1182.75 251.465 1183.25 251.965 1183.25 252.583Z" fill="#FFD700" fill-opacity="0.1"/>
<path d="M1198.72 192.287C1198.72 192.904 1198.22 193.405 1197.61 193.405C1196.99 193.405 1196.49 192.904 1196.49 192.287C1196.49 191.67 1196.99 191.17 1197.61 191.17C1198.22 191.17 1198.72 191.67 1198.72 192.287Z" fill="#FFD700" fill-opacity="0.1"/>
<path d="M1405.39 17.0645C1404.38 17.5102 1403.2 17.0552 1402.76 16.0485C1402.31 15.0419 1402.77 13.8644 1403.77 13.4187C1404.78 12.973 1405.96 13.4278 1406.4 14.4347C1406.85 15.4413 1406.39 16.6186 1405.39 17.0645Z" fill="#FFD700" fill-opacity="0.15"/>
<path d="M1251.21 33.7362C1251.21 34.8371 1250.32 35.7296 1249.22 35.7296C1248.12 35.7296 1247.23 34.8371 1247.23 33.7362C1247.23 32.6352 1248.12 31.7427 1249.22 31.7427C1250.32 31.7427 1251.21 32.6352 1251.21 33.7362Z" fill="#FFD700" fill-opacity="0.15"/>
<path d="M1399.33 82.1235C1398.55 82.9019 1397.29 82.9019 1396.51 82.1235C1395.73 81.3449 1395.73 80.0827 1396.51 79.3044C1397.29 78.5257 1398.55 78.5257 1399.33 79.3044C1400.11 80.0827 1400.11 81.3449 1399.33 82.1235Z" fill="#FFD700" fill-opacity="0.15"/>
<path d="M1374.12 32.8602C1374.12 33.4773 1373.62 33.9777 1373 33.9777C1372.38 33.9777 1371.88 33.4773 1371.88 32.8602C1371.88 32.2429 1372.38 31.7427 1373 31.7427C1373.62 31.7427 1374.12 32.2429 1374.12 32.8602Z" fill="#FFD700" fill-opacity="0.15"/>
<path d="M1280.9 149.38C1280.9 149.997 1280.4 150.497 1279.79 150.497C1279.17 150.497 1278.67 149.997 1278.67 149.38C1278.67 148.762 1279.17 148.262 1279.79 148.262C1280.4 148.262 1280.9 148.762 1280.9 149.38Z" fill="#FFD700" fill-opacity="0.15"/>
<path d="M1218.41 75.0826C1218.25 73.8744 1218.13 73.7536 1216.89 73.5724C1218.1 73.4212 1218.22 73.3004 1218.41 72.0621C1218.56 73.2703 1218.68 73.3911 1219.92 73.5724C1218.71 73.7232 1218.59 73.8744 1218.41 75.0826Z" fill="#FFD700" fill-opacity="0.1"/>
<path d="M1323.77 26.9939C1323.61 25.7857 1323.49 25.6649 1322.25 25.4837C1323.46 25.3325 1323.58 25.2118 1323.77 23.9734C1323.92 25.1816 1324.04 25.3024 1325.28 25.4837C1324.07 25.6346 1323.95 25.7857 1323.77 26.9939Z" fill="#FFD700" fill-opacity="0.1"/>
<path d="M1247.2 153.131C1247.04 151.923 1246.92 151.802 1245.68 151.621C1246.89 151.469 1247.01 151.349 1247.2 150.11C1247.35 151.319 1247.47 151.439 1248.71 151.621C1247.5 151.771 1247.38 151.923 1247.2 153.131Z" fill="#FFD700" fill-opacity="0.1"/>
<path d="M1179.5 38.091C1179.35 36.8828 1179.23 36.7621 1177.99 36.5808C1179.2 36.4296 1179.32 36.3089 1179.5 35.0706C1179.65 36.2787 1179.78 36.3995 1181.01 36.5808C1179.81 36.7317 1179.68 36.8828 1179.5 38.091Z" fill="#FFD700" fill-opacity="0.1"/>
<path d="M1161.66 61.2019C1161.81 59.9937 1161.93 59.873 1163.17 59.6917C1161.96 59.5405 1161.84 59.4198 1161.66 58.1815C1161.51 59.3896 1161.39 59.5104 1160.15 59.6917C1161.36 59.8426 1161.48 59.9937 1161.66 61.2019Z" fill="#FFD700" fill-opacity="0.1"/>
<path d="M1245.3 203.362C1245.45 202.154 1245.57 202.033 1246.81 201.852C1245.61 201.701 1245.48 201.58 1245.3 200.341C1245.15 201.55 1245.03 201.67 1243.79 201.852C1245 202.003 1245.12 202.154 1245.3 203.362Z" fill="#FFD700" fill-opacity="0.1"/>
<path d="M1149.06 195.025C1149.21 193.816 1149.34 193.696 1150.57 193.514C1149.37 193.363 1149.24 193.243 1149.06 192.004C1148.91 193.212 1148.79 193.333 1147.55 193.514C1148.76 193.665 1148.88 193.816 1149.06 195.025Z" fill="#FFD700" fill-opacity="0.1"/>
<path d="M984.232 103.139C984.383 101.931 984.504 101.81 985.743 101.629C984.534 101.478 984.413 101.357 984.232 100.119C984.081 101.327 983.96 101.448 982.721 101.629C983.93 101.78 984.05 101.931 984.232 103.139Z" fill="#FFD700" fill-opacity="0.1"/>
<path d="M1072.94 7.19573C1073.1 5.98756 1073.22 5.86679 1074.46 5.68551C1073.25 5.53436 1073.13 5.41359 1072.94 4.17529C1072.79 5.38347 1072.67 5.50423 1071.43 5.68551C1072.64 5.83641 1072.76 5.98756 1072.94 7.19573Z" fill="#FFD700" fill-opacity="0.1"/>
<path d="M1092.15 53.2026C1092.15 53.8198 1092.65 54.3202 1093.27 54.3202C1093.89 54.3202 1094.39 53.8198 1094.39 53.2026C1094.39 52.5854 1093.89 52.0851 1093.27 52.0851C1092.65 52.0851 1092.15 52.5854 1092.15 53.2026Z" fill="#FFD700" fill-opacity="0.1"/>
<path d="M926.062 161.068C926.062 161.685 926.562 162.185 927.18 162.185C927.797 162.185 928.298 161.685 928.298 161.068C928.298 160.45 927.797 159.95 927.18 159.95C926.562 159.95 926.062 160.45 926.062 161.068Z" fill="#FFD700" fill-opacity="0.1"/>
<path d="M1182.77 85.6073C1182.77 86.2244 1183.27 86.7248 1183.89 86.7248C1184.51 86.7248 1185.01 86.2244 1185.01 85.6073C1185.01 84.99 1184.51 84.4897 1183.89 84.4897C1183.27 84.4897 1182.77 84.99 1182.77 85.6073Z" fill="#FFD700" fill-opacity="0.1"/>
<path d="M971.595 3.11754C971.595 3.73461 972.096 4.23508 972.713 4.23508C973.331 4.23508 973.832 3.73461 973.832 3.11754C973.832 2.50021 973.331 2 972.713 2C972.096 2 971.595 2.50021 971.595 3.11754Z" fill="#FFD700" fill-opacity="0.1"/>
<path d="M1209.41 128.886C1209.41 129.503 1209.91 130.003 1210.53 130.003C1211.14 130.003 1211.64 129.503 1211.64 128.886C1211.64 128.269 1211.14 127.768 1210.53 127.768C1209.91 127.768 1209.41 128.269 1209.41 128.886Z" fill="#FFD700" fill-opacity="0.1"/>
<path d="M1174.62 218.133C1174.62 218.751 1175.12 219.251 1175.74 219.251C1176.35 219.251 1176.85 218.751 1176.85 218.133C1176.85 217.516 1176.35 217.016 1175.74 217.016C1175.12 217.016 1174.62 217.516 1174.62 218.133Z" fill="#FFD700" fill-opacity="0.1"/>
<path d="M1154.6 109.651C1154.6 110.268 1155.1 110.769 1155.72 110.769C1156.34 110.769 1156.84 110.268 1156.84 109.651C1156.84 109.034 1156.34 108.534 1155.72 108.534C1155.1 108.534 1154.6 109.034 1154.6 109.651Z" fill="#FFD700" fill-opacity="0.1"/>
<path d="M1170.28 153.136C1171.28 153.582 1172.46 153.127 1172.91 152.12C1173.35 151.114 1172.9 149.936 1171.89 149.49C1170.88 149.045 1169.7 149.5 1169.26 150.506C1168.81 151.513 1169.27 152.69 1170.28 153.136Z" fill="#FFD700" fill-opacity="0.15"/>
<path d="M1023.57 147.59C1023.57 148.691 1024.46 149.584 1025.57 149.584C1026.67 149.584 1027.56 148.691 1027.56 147.59C1027.56 146.489 1026.67 145.597 1025.57 145.597C1024.46 145.597 1023.57 146.489 1023.57 147.59Z" fill="#FFD700" fill-opacity="0.15"/>
<path d="M1089.71 114.624C1090.49 115.402 1091.75 115.402 1092.53 114.624C1093.31 113.845 1093.31 112.583 1092.53 111.805C1091.75 111.026 1090.49 111.026 1089.71 111.805C1088.93 112.583 1088.93 113.845 1089.71 114.624Z" fill="#FFD700" fill-opacity="0.15"/>
<path d="M1161.63 11.9969C1161.63 12.614 1162.13 13.1145 1162.75 13.1145C1163.36 13.1145 1163.86 12.614 1163.86 11.9969C1163.86 11.3796 1163.36 10.8794 1162.75 10.8794C1162.13 10.8794 1161.63 11.3796 1161.63 11.9969Z" fill="#FFD700" fill-opacity="0.15"/>
<path d="M1039.25 43.068C1039.25 43.6851 1039.75 44.1856 1040.37 44.1856C1040.99 44.1856 1041.49 43.6851 1041.49 43.068C1041.49 42.4507 1040.99 41.9505 1040.37 41.9505C1039.75 41.9505 1039.25 42.4507 1039.25 43.068Z" fill="#FFD700" fill-opacity="0.15"/>
<path d="M1027.67 217.061C1027.83 215.852 1027.95 215.732 1029.19 215.55C1027.98 215.399 1027.86 215.278 1027.67 214.04C1027.52 215.248 1027.4 215.369 1026.16 215.55C1027.37 215.701 1027.49 215.852 1027.67 217.061Z" fill="#FFD700" fill-opacity="0.1"/>
<path d="M940.149 74.148C940.3 72.9398 940.421 72.8191 941.66 72.6378C940.451 72.4866 940.331 72.3659 940.149 71.1276C939.998 72.3357 939.877 72.4565 938.638 72.6378C939.847 72.7887 939.968 72.9398 940.149 74.148Z" fill="#FFD700" fill-opacity="0.1"/>
<path d="M884.511 126.768C884.662 125.56 884.783 125.439 886.022 125.258C884.813 125.107 884.692 124.986 884.511 123.747C884.36 124.956 884.239 125.076 883 125.258C884.209 125.409 884.33 125.56 884.511 126.768Z" fill="#FFD700" fill-opacity="0.1"/>
<path d="M948.512 246.68C948.663 247.888 948.784 248.009 950.023 248.19C948.814 248.341 948.694 248.462 948.512 249.7C948.361 248.492 948.24 248.371 947.001 248.19C948.21 248.039 948.331 247.888 948.512 246.68Z" fill="#FFD700" fill-opacity="0.1"/>
<path d="M1032.11 2.89435C1032.26 4.10253 1032.38 4.2233 1033.62 4.40457C1032.41 4.55573 1032.29 4.67649 1032.11 5.91479C1031.96 4.70662 1031.84 4.58585 1030.6 4.40457C1031.81 4.25368 1031.93 4.10253 1032.11 2.89435Z" fill="#FFD700" fill-opacity="0.1"/>
<path d="M1018.79 169.37C1018.94 170.578 1019.07 170.699 1020.3 170.88C1019.1 171.032 1018.97 171.152 1018.79 172.391C1018.64 171.182 1018.52 171.062 1017.28 170.88C1018.49 170.73 1018.61 170.578 1018.79 169.37Z" fill="#FFD700" fill-opacity="0.1"/>
<path d="M933.346 64.3178C933.497 65.526 933.618 65.6468 934.857 65.828C933.648 65.9792 933.527 66.1 933.346 67.3383C933.195 66.1301 933.074 66.0093 931.835 65.828C933.044 65.6771 933.165 65.526 933.346 64.3178Z" fill="#FFD700" fill-opacity="0.1"/>
<path d="M1057.34 248.583C1057.34 247.966 1057.84 247.465 1058.46 247.465C1059.07 247.465 1059.58 247.966 1059.58 248.583C1059.58 249.2 1059.07 249.7 1058.46 249.7C1057.84 249.7 1057.34 249.2 1057.34 248.583Z" fill="#FFD700" fill-opacity="0.1"/>
<path d="M841.625 154.997C841.625 154.38 842.125 153.88 842.743 153.88C843.36 153.88 843.861 154.38 843.861 154.997C843.861 155.615 843.36 156.115 842.743 156.115C842.125 156.115 841.625 155.615 841.625 154.997Z" fill="#FFD700" fill-opacity="0.1"/>
<path d="M995.68 104.481C995.68 103.864 996.181 103.363 996.798 103.363C997.416 103.363 997.916 103.864 997.916 104.481C997.916 105.098 997.416 105.598 996.798 105.598C996.181 105.598 995.68 105.098 995.68 104.481Z" fill="#FFD700" fill-opacity="0.1"/>
<path d="M990.326 1.11776C990.326 0.500427 990.826 -4.0556e-05 991.444 -4.0583e-05C992.061 -4.061e-05 992.562 0.500427 992.562 1.11776C992.562 1.73483 992.061 2.23529 991.444 2.23529C990.826 2.23529 990.326 1.73483 990.326 1.11776Z" fill="#FFD700" fill-opacity="0.1"/>
<path d="M974.852 61.4132C974.852 60.7961 975.352 60.2956 975.97 60.2956C976.587 60.2956 977.088 60.7961 977.088 61.4132C977.088 62.0305 976.587 62.5307 975.97 62.5307C975.352 62.5307 974.852 62.0305 974.852 61.4132Z" fill="#FFD700" fill-opacity="0.1"/>
<path d="M768.188 236.636C769.195 236.19 770.373 236.645 770.819 237.652C771.265 238.658 770.809 239.836 769.802 240.282C768.795 240.727 767.617 240.272 767.171 239.266C766.725 238.259 767.18 237.082 768.188 236.636Z" fill="#FFD700" fill-opacity="0.15"/>
<path d="M922.36 219.964C922.36 218.863 923.253 217.971 924.355 217.971C925.456 217.971 926.349 218.863 926.349 219.964C926.349 221.065 925.456 221.958 924.355 221.958C923.253 221.958 922.36 221.065 922.36 219.964Z" fill="#FFD700" fill-opacity="0.15"/>
<path d="M774.244 171.577C775.022 170.798 776.285 170.798 777.064 171.577C777.843 172.355 777.843 173.618 777.064 174.396C776.285 175.175 775.022 175.175 774.244 174.396C773.465 173.618 773.465 172.355 774.244 171.577Z" fill="#FFD700" fill-opacity="0.15"/>
<path d="M799.456 220.84C799.456 220.223 799.956 219.723 800.574 219.723C801.192 219.723 801.692 220.223 801.692 220.84C801.692 221.457 801.192 221.958 800.574 221.958C799.956 221.958 799.456 221.457 799.456 220.84Z" fill="#FFD700" fill-opacity="0.15"/>
<path d="M892.671 104.321C892.671 103.704 893.172 103.203 893.789 103.203C894.407 103.203 894.907 103.704 894.907 104.321C894.907 104.938 894.407 105.438 893.789 105.438C893.172 105.438 892.671 104.938 892.671 104.321Z" fill="#FFD700" fill-opacity="0.15"/>
<path d="M955.17 178.618C955.321 179.826 955.442 179.947 956.681 180.128C955.473 180.279 955.352 180.4 955.17 181.638C955.019 180.43 954.898 180.309 953.659 180.128C954.868 179.977 954.989 179.826 955.17 178.618Z" fill="#FFD700" fill-opacity="0.1"/>
<path d="M849.81 226.706C849.961 227.915 850.082 228.035 851.321 228.217C850.112 228.368 849.991 228.489 849.81 229.727C849.659 228.519 849.538 228.398 848.299 228.217C849.508 228.066 849.629 227.915 849.81 226.706Z" fill="#FFD700" fill-opacity="0.1"/>
<path d="M926.38 100.569C926.531 101.778 926.652 101.898 927.891 102.08C926.682 102.231 926.561 102.352 926.38 103.59C926.229 102.382 926.108 102.261 924.869 102.08C926.078 101.929 926.198 101.778 926.38 100.569Z" fill="#FFD700" fill-opacity="0.1"/>
<path d="M994.072 215.609C994.223 216.817 994.344 216.938 995.583 217.12C994.374 217.271 994.253 217.391 994.072 218.63C993.921 217.422 993.8 217.301 992.561 217.12C993.77 216.969 993.891 216.817 994.072 215.609Z" fill="#FFD700" fill-opacity="0.1"/>
<path d="M938.657 202.117C938.808 203.325 938.929 203.446 940.168 203.627C938.959 203.778 938.838 203.899 938.657 205.137C938.506 203.929 938.385 203.809 937.146 203.627C938.355 203.476 938.475 203.325 938.657 202.117Z" fill="#FFD700" fill-opacity="0.1"/>
<path d="M1022.3 59.957C1022.45 61.1652 1022.57 61.286 1023.81 61.4673C1022.6 61.6184 1022.48 61.7392 1022.3 62.9775C1022.15 61.7693 1022.03 61.6485 1020.79 61.4673C1022 61.3164 1022.12 61.1652 1022.3 59.957Z" fill="#FFD700" fill-opacity="0.1"/>
<path d="M926.061 68.2943C926.212 69.5024 926.333 69.6232 927.572 69.8045C926.363 69.9556 926.242 70.0764 926.061 71.3147C925.91 70.1065 925.789 69.9858 924.55 69.8045C925.759 69.6536 925.88 69.5024 926.061 68.2943Z" fill="#FFD700" fill-opacity="0.1"/>
<path d="M726.764 2.00007C726.915 3.20824 727.036 3.32901 728.275 3.51029C727.066 3.66144 726.946 3.78221 726.764 5.02051C726.613 3.81233 726.492 3.69157 725.253 3.51029C726.462 3.3594 726.583 3.20824 726.764 2.00007Z" fill="#FFD700" fill-opacity="0.1"/>
<path d="M849.942 256.123C850.093 257.331 850.214 257.452 851.453 257.633C850.244 257.785 850.123 257.905 849.942 259.144C849.791 257.935 849.67 257.815 848.431 257.633C849.64 257.483 849.761 257.331 849.942 256.123Z" fill="#FFD700" fill-opacity="0.1"/>
<path d="M869.151 210.116C869.151 209.499 869.651 208.999 870.269 208.999C870.886 208.999 871.387 209.499 871.387 210.116C871.387 210.733 870.886 211.234 870.269 211.234C869.651 211.234 869.151 210.733 869.151 210.116Z" fill="#FFD700" fill-opacity="0.1"/>
<path d="M703.059 102.251C703.059 101.634 703.56 101.134 704.177 101.134C704.795 101.134 705.295 101.634 705.295 102.251C705.295 102.869 704.795 103.369 704.177 103.369C703.56 103.369 703.059 102.869 703.059 102.251Z" fill="#FFD700" fill-opacity="0.1"/>
<path d="M959.772 177.712C959.772 177.095 960.272 176.594 960.89 176.594C961.507 176.594 962.008 177.095 962.008 177.712C962.008 178.329 961.507 178.829 960.89 178.829C960.272 178.829 959.772 178.329 959.772 177.712Z" fill="#FFD700" fill-opacity="0.1"/>
<path d="M748.593 260.201C748.593 259.584 749.093 259.084 749.711 259.084C750.328 259.084 750.829 259.584 750.829 260.201C750.829 260.819 750.328 261.319 749.711 261.319C749.093 261.319 748.593 260.819 748.593 260.201Z" fill="#FFD700" fill-opacity="0.1"/>
<path d="M986.405 134.433C986.405 133.816 986.905 133.316 987.523 133.316C988.14 133.316 988.641 133.816 988.641 134.433C988.641 135.05 988.14 135.551 987.523 135.551C986.905 135.551 986.405 135.05 986.405 134.433Z" fill="#FFD700" fill-opacity="0.1"/>
<path d="M951.616 45.1856C951.616 44.5682 952.116 44.0678 952.734 44.0678C953.351 44.0678 953.852 44.5682 953.852 45.1856C953.852 45.8026 953.351 46.3031 952.734 46.3031C952.116 46.3031 951.616 45.8026 951.616 45.1856Z" fill="#FFD700" fill-opacity="0.1"/>
<path d="M931.597 153.668C931.597 153.051 932.098 152.55 932.715 152.55C933.333 152.55 933.833 153.051 933.833 153.668C933.833 154.285 933.333 154.785 932.715 154.785C932.098 154.785 931.597 154.285 931.597 153.668Z" fill="#FFD700" fill-opacity="0.1"/>
<path d="M947.273 110.183C948.28 109.737 949.458 110.192 949.904 111.199C950.35 112.205 949.895 113.383 948.888 113.829C947.88 114.274 946.702 113.819 946.256 112.813C945.811 111.806 946.266 110.629 947.273 110.183Z" fill="#FFD700" fill-opacity="0.15"/>
<path d="M800.569 115.729C800.569 114.628 801.462 113.735 802.563 113.735C803.665 113.735 804.558 114.628 804.558 115.729C804.558 116.83 803.665 117.722 802.563 117.722C801.462 117.722 800.569 116.83 800.569 115.729Z" fill="#FFD700" fill-opacity="0.15"/>
<path d="M866.709 148.695C867.488 147.917 868.75 147.917 869.529 148.695C870.308 149.474 870.308 150.736 869.529 151.514C868.75 152.293 867.488 152.293 866.709 151.514C865.93 150.736 865.93 149.474 866.709 148.695Z" fill="#FFD700" fill-opacity="0.15"/>
<path d="M938.625 251.322C938.625 250.705 939.126 250.204 939.744 250.204C940.361 250.204 940.862 250.705 940.862 251.322C940.862 251.939 940.361 252.44 939.744 252.44C939.126 252.44 938.625 251.939 938.625 251.322Z" fill="#FFD700" fill-opacity="0.15"/>
<path d="M816.249 220.251C816.249 219.634 816.75 219.133 817.367 219.133C817.985 219.133 818.485 219.634 818.485 220.251C818.485 220.868 817.985 221.368 817.367 221.368C816.75 221.368 816.249 220.868 816.249 220.251Z" fill="#FFD700" fill-opacity="0.15"/>
<path d="M804.672 46.2584C804.823 47.4666 804.944 47.5874 806.183 47.7686C804.974 47.9198 804.853 48.0406 804.672 49.2789C804.521 48.0707 804.4 47.9499 803.161 47.7686C804.37 47.6178 804.49 47.4666 804.672 46.2584Z" fill="#FFD700" fill-opacity="0.1"/>
<path d="M717.147 189.171C717.298 190.379 717.419 190.5 718.658 190.681C717.449 190.832 717.328 190.953 717.147 192.191C716.996 190.983 716.875 190.862 715.636 190.681C716.845 190.53 716.965 190.379 717.147 189.171Z" fill="#FFD700" fill-opacity="0.1"/>
<path d="M663.511 36.0311C663.662 37.2393 663.783 37.3601 665.022 37.5414C663.813 37.6925 663.692 37.8133 663.511 39.0516C663.36 37.8434 663.239 37.7226 662 37.5414C663.209 37.3905 663.33 37.2393 663.511 36.0311Z" fill="#FFD700" fill-opacity="0.1"/>
</svg>
