<svg width="178" height="69" viewBox="0 0 178 69" fill="none" xmlns="http://www.w3.org/2000/svg">
<path d="M18.024 68C16.232 68 14.824 67.52 13.8 66.56C12.776 65.536 12.072 63.936 11.688 61.76L0.264 0.799995H7.272L17.736 58.784H17.832L34.728 4.352H37.704C38.856 4.352 39.784 4.704 40.488 5.408C41.192 6.048 41.768 7.072 42.216 8.48L57.192 58.784H57.288L67.752 0.799995H74.76L63.336 61.76C62.952 63.936 62.248 65.536 61.224 66.56C60.2 67.52 58.792 68 57 68H54.12L37.8 13.856H37.704L20.904 68H18.024ZM97.7633 68.768C92.3873 68.768 88.0673 67.2 84.8033 64.064C81.5393 60.864 79.9073 56.64 79.9073 51.392V37.664C79.9073 32.16 81.5393 27.744 84.8033 24.416C88.0673 21.024 92.3873 19.328 97.7633 19.328H105.635C110.755 19.328 114.883 20.96 118.019 24.224C121.155 27.488 122.723 31.808 122.723 37.184V45.632H86.8193V51.392C86.8193 54.72 87.8113 57.44 89.7953 59.552C91.8433 61.6 94.4993 62.624 97.7633 62.624H105.059C108.259 62.624 110.851 61.76 112.835 60.032C114.819 58.24 115.811 55.872 115.811 52.928H122.531C122.531 57.664 120.931 61.504 117.731 64.448C114.531 67.328 110.307 68.768 105.059 68.768H97.7633ZM115.811 39.68V37.184C115.811 33.664 114.883 30.848 113.027 28.736C111.171 26.56 108.707 25.472 105.635 25.472H97.7633C94.4993 25.472 91.8433 26.592 89.7953 28.832C87.8113 31.072 86.8193 34.016 86.8193 37.664V39.68H115.811ZM153.708 68.768C151.596 68.768 149.356 68.128 146.988 66.848C144.62 65.504 142.796 63.84 141.516 61.856V68H134.796V0.799995H141.708V25.76C143.116 23.776 144.908 22.208 147.084 21.056C149.324 19.904 151.628 19.328 153.996 19.328H160.812C164.076 19.328 166.956 20.096 169.452 21.632C172.012 23.104 173.996 25.216 175.404 27.968C176.876 30.656 177.612 33.76 177.612 37.28V49.664C177.612 53.44 176.876 56.768 175.404 59.648C173.996 62.528 171.98 64.768 169.356 66.368C166.796 67.968 163.82 68.768 160.428 68.768H153.708ZM160.236 62.624C163.308 62.624 165.804 61.44 167.724 59.072C169.708 56.64 170.7 53.504 170.7 49.664V37.28C170.7 33.76 169.74 30.912 167.82 28.736C165.964 26.56 163.564 25.472 160.62 25.472H154.188C150.86 25.472 148.012 26.688 145.644 29.12C143.276 31.552 141.964 34.752 141.708 38.72V50.432C141.836 52.672 142.476 54.72 143.628 56.576C144.78 58.432 146.252 59.904 148.044 60.992C149.836 62.08 151.724 62.624 153.708 62.624H160.236Z" fill="#74C313"/>
</svg>
