<svg width="681" height="239" viewBox="0 0 681 239" fill="none" xmlns="http://www.w3.org/2000/svg">
<path d="M110.821 225L209 165.62H13L110.821 225Z" fill="black"/>
<path d="M110.821 225L209 165.62H13L110.821 225Z" fill="black"/>
<path d="M13 165.62H209V75H13V165.62Z" fill="black"/>
<path d="M13 165.62H209V75H13V165.62Z" fill="black"/>
<path d="M110.821 14L209 73.38H13L110.821 14Z" fill="black"/>
<path d="M110.821 14L209 73.38H13L110.821 14Z" fill="black"/>
<path d="M13 73.38H209V164H13V73.38Z" fill="black"/>
<path d="M13 73.38H209V164H13V73.38Z" fill="black"/>
<path d="M201 119H22C32.8014 146.667 65.8592 202 111.679 202C157.5 202 190.318 146.667 201 119Z" fill="#74C313"/>
<path d="M201 119H22C32.8014 91.3333 65.8592 36 111.679 36C157.5 36 190.318 91.3333 201 119Z" fill="#74C313"/>
<path d="M75.9821 189C63.9155 164.674 60.9902 153.5 58 135C71.7857 158.367 83.3103 168.433 111 180.683C97.7615 184.761 90.1044 186.601 75.9821 189Z" fill="#253514"/>
<path d="M146.679 50C158.973 74.3264 161.953 85.5001 165 104C150.954 80.6334 139.212 70.5674 111 58.317C124.488 54.2392 132.29 52.3988 146.679 50Z" fill="#253514"/>
<path d="M76.3214 50C64.0271 74.3264 61.0466 85.5001 58 104C72.0458 80.6334 83.7878 70.5674 112 58.317C98.5117 54.2392 90.7102 52.3988 76.3214 50Z" fill="#253514"/>
<path d="M146.018 189C158.084 164.674 161.01 153.5 164 135C150.214 158.367 138.69 168.433 111 180.683C124.239 184.761 131.896 186.601 146.018 189Z" fill="#253514"/>
<path d="M111 28C167.868 57.2737 166.642 41.5999 183 84.8219V163.728C166.104 185.799 144.223 197.338 111 211V28Z" fill="black" fill-opacity="0.2"/>
<path d="M40 155V83L28.5 99.32L17 119L28.5 138.68L40 155Z" fill="black" fill-opacity="0.2"/>
<path d="M111 86L144 118H78L111 86Z" fill="black"/>
<path d="M111 151L144 118H78L111 151Z" fill="black"/>
<path d="M451.583 155.768C447.295 155.768 443.487 154.744 440.159 152.696C436.895 150.648 434.335 147.8 432.479 144.152C430.687 140.44 429.791 136.184 429.791 131.384V111.416C429.791 106.616 430.687 102.36 432.479 98.648C434.335 94.936 436.927 92.088 440.255 90.104C443.647 88.056 447.551 87.032 451.967 87.032H462.143C466.303 87.032 469.951 87.928 473.087 89.72C476.287 91.512 478.751 94.04 480.479 97.304C482.271 100.568 483.167 104.312 483.167 108.536H476.255C476.255 103.992 474.943 100.344 472.319 97.592C469.759 94.776 466.367 93.368 462.143 93.368H451.967C447.423 93.368 443.775 95.032 441.023 98.36C438.271 101.624 436.895 105.976 436.895 111.416V131.384C436.895 136.824 438.239 141.208 440.927 144.536C443.615 147.8 447.167 149.432 451.583 149.432H461.951C466.303 149.432 469.791 147.896 472.415 144.824C475.103 141.752 476.447 137.72 476.447 132.728H483.359C483.359 137.272 482.463 141.304 480.671 144.824C478.879 148.28 476.351 150.968 473.087 152.888C469.887 154.808 466.175 155.768 461.951 155.768H451.583ZM494.702 107.096H501.422V114.488C502.702 112.248 504.622 110.424 507.182 109.016C509.806 107.608 512.526 106.904 515.342 106.904H519.566V113.144H515.342C511.246 113.144 507.918 114.456 505.358 117.08C502.862 119.64 501.614 123.064 501.614 127.352V155H494.702V107.096ZM541.151 155.768C536.479 155.768 532.735 154.552 529.919 152.12C527.167 149.688 525.791 146.424 525.791 142.328V139.256C525.791 135.224 527.231 131.992 530.111 129.56C532.991 127.128 536.799 125.912 541.535 125.912H547.679C549.791 125.912 551.967 126.232 554.207 126.872C556.447 127.512 558.367 128.376 559.967 129.464V121.496C559.967 118.808 559.135 116.632 557.471 114.968C555.807 113.24 553.599 112.376 550.847 112.376H543.167C540.415 112.376 538.207 113.016 536.543 114.296C534.879 115.576 534.047 117.272 534.047 119.384H527.135C527.135 115.48 528.607 112.344 531.551 109.976C534.495 107.544 538.367 106.328 543.167 106.328H550.847C555.583 106.328 559.391 107.736 562.271 110.552C565.215 113.304 566.687 116.952 566.687 121.496V155H560.159V148.28C558.687 150.584 556.735 152.408 554.303 153.752C551.935 155.096 549.471 155.768 546.911 155.768H541.151ZM547.103 149.72C550.111 149.72 552.799 148.792 555.167 146.936C557.535 145.08 559.135 142.616 559.967 139.544V135.992C558.687 134.776 556.895 133.816 554.591 133.112C552.351 132.344 550.047 131.96 547.679 131.96H541.535C538.911 131.96 536.767 132.632 535.103 133.976C533.503 135.32 532.703 137.08 532.703 139.256V142.328C532.703 144.568 533.471 146.36 535.007 147.704C536.543 149.048 538.591 149.72 541.151 149.72H547.103ZM584.909 113.24H576.653V107.096H584.909V103.352C584.909 98.104 586.253 94.136 588.941 91.448C591.629 88.76 595.565 87.416 600.749 87.416H604.397V93.368H600.749C597.677 93.368 595.405 94.2 593.933 95.864C592.525 97.464 591.821 99.96 591.821 103.352V107.096H603.341V113.24H591.821V155H584.909V113.24ZM633.425 155C628.369 155 624.721 153.912 622.481 151.736C620.305 149.56 619.217 145.976 619.217 140.984V113.24H610.769V107.096H619.217V92.6H626.129V107.096H638.609V113.24H626.129V140.984C626.129 143.8 626.673 145.816 627.761 147.032C628.913 148.248 630.801 148.856 633.425 148.856H638.609V155H633.425Z" fill="white"/>
<path d="M451.583 155.768C447.295 155.768 443.487 154.744 440.159 152.696C436.895 150.648 434.335 147.8 432.479 144.152C430.687 140.44 429.791 136.184 429.791 131.384V111.416C429.791 106.616 430.687 102.36 432.479 98.648C434.335 94.936 436.927 92.088 440.255 90.104C443.647 88.056 447.551 87.032 451.967 87.032H462.143C466.303 87.032 469.951 87.928 473.087 89.72C476.287 91.512 478.751 94.04 480.479 97.304C482.271 100.568 483.167 104.312 483.167 108.536H476.255C476.255 103.992 474.943 100.344 472.319 97.592C469.759 94.776 466.367 93.368 462.143 93.368H451.967C447.423 93.368 443.775 95.032 441.023 98.36C438.271 101.624 436.895 105.976 436.895 111.416V131.384C436.895 136.824 438.239 141.208 440.927 144.536C443.615 147.8 447.167 149.432 451.583 149.432H461.951C466.303 149.432 469.791 147.896 472.415 144.824C475.103 141.752 476.447 137.72 476.447 132.728H483.359C483.359 137.272 482.463 141.304 480.671 144.824C478.879 148.28 476.351 150.968 473.087 152.888C469.887 154.808 466.175 155.768 461.951 155.768H451.583ZM494.702 107.096H501.422V114.488C502.702 112.248 504.622 110.424 507.182 109.016C509.806 107.608 512.526 106.904 515.342 106.904H519.566V113.144H515.342C511.246 113.144 507.918 114.456 505.358 117.08C502.862 119.64 501.614 123.064 501.614 127.352V155H494.702V107.096ZM541.151 155.768C536.479 155.768 532.735 154.552 529.919 152.12C527.167 149.688 525.791 146.424 525.791 142.328V139.256C525.791 135.224 527.231 131.992 530.111 129.56C532.991 127.128 536.799 125.912 541.535 125.912H547.679C549.791 125.912 551.967 126.232 554.207 126.872C556.447 127.512 558.367 128.376 559.967 129.464V121.496C559.967 118.808 559.135 116.632 557.471 114.968C555.807 113.24 553.599 112.376 550.847 112.376H543.167C540.415 112.376 538.207 113.016 536.543 114.296C534.879 115.576 534.047 117.272 534.047 119.384H527.135C527.135 115.48 528.607 112.344 531.551 109.976C534.495 107.544 538.367 106.328 543.167 106.328H550.847C555.583 106.328 559.391 107.736 562.271 110.552C565.215 113.304 566.687 116.952 566.687 121.496V155H560.159V148.28C558.687 150.584 556.735 152.408 554.303 153.752C551.935 155.096 549.471 155.768 546.911 155.768H541.151ZM547.103 149.72C550.111 149.72 552.799 148.792 555.167 146.936C557.535 145.08 559.135 142.616 559.967 139.544V135.992C558.687 134.776 556.895 133.816 554.591 133.112C552.351 132.344 550.047 131.96 547.679 131.96H541.535C538.911 131.96 536.767 132.632 535.103 133.976C533.503 135.32 532.703 137.08 532.703 139.256V142.328C532.703 144.568 533.471 146.36 535.007 147.704C536.543 149.048 538.591 149.72 541.151 149.72H547.103ZM584.909 113.24H576.653V107.096H584.909V103.352C584.909 98.104 586.253 94.136 588.941 91.448C591.629 88.76 595.565 87.416 600.749 87.416H604.397V93.368H600.749C597.677 93.368 595.405 94.2 593.933 95.864C592.525 97.464 591.821 99.96 591.821 103.352V107.096H603.341V113.24H591.821V155H584.909V113.24ZM633.425 155C628.369 155 624.721 153.912 622.481 151.736C620.305 149.56 619.217 145.976 619.217 140.984V113.24H610.769V107.096H619.217V92.6H626.129V107.096H638.609V113.24H626.129V140.984C626.129 143.8 626.673 145.816 627.761 147.032C628.913 148.248 630.801 148.856 633.425 148.856H638.609V155H633.425Z" fill="url(#paint0_linear_3_59)"/>
<path d="M261.524 155C259.732 155 258.324 154.52 257.3 153.56C256.276 152.536 255.572 150.936 255.188 148.76L243.764 87.8H250.772L261.236 145.784H261.332L278.228 91.352H281.204C282.356 91.352 283.284 91.704 283.988 92.408C284.692 93.048 285.268 94.072 285.716 95.48L300.692 145.784H300.788L311.252 87.8H318.26L306.836 148.76C306.452 150.936 305.748 152.536 304.724 153.56C303.7 154.52 302.292 155 300.5 155H297.62L281.3 100.856H281.204L264.404 155H261.524ZM341.263 155.768C335.887 155.768 331.567 154.2 328.303 151.064C325.039 147.864 323.407 143.64 323.407 138.392V124.664C323.407 119.16 325.039 114.744 328.303 111.416C331.567 108.024 335.887 106.328 341.263 106.328H349.135C354.255 106.328 358.383 107.96 361.519 111.224C364.655 114.488 366.223 118.808 366.223 124.184V132.632H330.319V138.392C330.319 141.72 331.311 144.44 333.295 146.552C335.343 148.6 337.999 149.624 341.263 149.624H348.559C351.759 149.624 354.351 148.76 356.335 147.032C358.319 145.24 359.311 142.872 359.311 139.928H366.031C366.031 144.664 364.431 148.504 361.231 151.448C358.031 154.328 353.807 155.768 348.559 155.768H341.263ZM359.311 126.68V124.184C359.311 120.664 358.383 117.848 356.527 115.736C354.671 113.56 352.207 112.472 349.135 112.472H341.263C337.999 112.472 335.343 113.592 333.295 115.832C331.311 118.072 330.319 121.016 330.319 124.664V126.68H359.311ZM397.208 155.768C395.096 155.768 392.856 155.128 390.488 153.848C388.12 152.504 386.296 150.84 385.016 148.856V155H378.296V87.8H385.208V112.76C386.616 110.776 388.408 109.208 390.584 108.056C392.824 106.904 395.128 106.328 397.496 106.328H404.312C407.576 106.328 410.456 107.096 412.952 108.632C415.512 110.104 417.496 112.216 418.904 114.968C420.376 117.656 421.112 120.76 421.112 124.28V136.664C421.112 140.44 420.376 143.768 418.904 146.648C417.496 149.528 415.48 151.768 412.856 153.368C410.296 154.968 407.32 155.768 403.928 155.768H397.208ZM403.736 149.624C406.808 149.624 409.304 148.44 411.224 146.072C413.208 143.64 414.2 140.504 414.2 136.664V124.28C414.2 120.76 413.24 117.912 411.32 115.736C409.464 113.56 407.064 112.472 404.12 112.472H397.688C394.36 112.472 391.512 113.688 389.144 116.12C386.776 118.552 385.464 121.752 385.208 125.72V137.432C385.336 139.672 385.976 141.72 387.128 143.576C388.28 145.432 389.752 146.904 391.544 147.992C393.336 149.08 395.224 149.624 397.208 149.624H403.736Z" fill="white"/>
<path d="M261.524 155C259.732 155 258.324 154.52 257.3 153.56C256.276 152.536 255.572 150.936 255.188 148.76L243.764 87.8H250.772L261.236 145.784H261.332L278.228 91.352H281.204C282.356 91.352 283.284 91.704 283.988 92.408C284.692 93.048 285.268 94.072 285.716 95.48L300.692 145.784H300.788L311.252 87.8H318.26L306.836 148.76C306.452 150.936 305.748 152.536 304.724 153.56C303.7 154.52 302.292 155 300.5 155H297.62L281.3 100.856H281.204L264.404 155H261.524ZM341.263 155.768C335.887 155.768 331.567 154.2 328.303 151.064C325.039 147.864 323.407 143.64 323.407 138.392V124.664C323.407 119.16 325.039 114.744 328.303 111.416C331.567 108.024 335.887 106.328 341.263 106.328H349.135C354.255 106.328 358.383 107.96 361.519 111.224C364.655 114.488 366.223 118.808 366.223 124.184V132.632H330.319V138.392C330.319 141.72 331.311 144.44 333.295 146.552C335.343 148.6 337.999 149.624 341.263 149.624H348.559C351.759 149.624 354.351 148.76 356.335 147.032C358.319 145.24 359.311 142.872 359.311 139.928H366.031C366.031 144.664 364.431 148.504 361.231 151.448C358.031 154.328 353.807 155.768 348.559 155.768H341.263ZM359.311 126.68V124.184C359.311 120.664 358.383 117.848 356.527 115.736C354.671 113.56 352.207 112.472 349.135 112.472H341.263C337.999 112.472 335.343 113.592 333.295 115.832C331.311 118.072 330.319 121.016 330.319 124.664V126.68H359.311ZM397.208 155.768C395.096 155.768 392.856 155.128 390.488 153.848C388.12 152.504 386.296 150.84 385.016 148.856V155H378.296V87.8H385.208V112.76C386.616 110.776 388.408 109.208 390.584 108.056C392.824 106.904 395.128 106.328 397.496 106.328H404.312C407.576 106.328 410.456 107.096 412.952 108.632C415.512 110.104 417.496 112.216 418.904 114.968C420.376 117.656 421.112 120.76 421.112 124.28V136.664C421.112 140.44 420.376 143.768 418.904 146.648C417.496 149.528 415.48 151.768 412.856 153.368C410.296 154.968 407.32 155.768 403.928 155.768H397.208ZM403.736 149.624C406.808 149.624 409.304 148.44 411.224 146.072C413.208 143.64 414.2 140.504 414.2 136.664V124.28C414.2 120.76 413.24 117.912 411.32 115.736C409.464 113.56 407.064 112.472 404.12 112.472H397.688C394.36 112.472 391.512 113.688 389.144 116.12C386.776 118.552 385.464 121.752 385.208 125.72V137.432C385.336 139.672 385.976 141.72 387.128 143.576C388.28 145.432 389.752 146.904 391.544 147.992C393.336 149.08 395.224 149.624 397.208 149.624H403.736Z" fill="url(#paint1_linear_3_59)"/>
<defs>
<linearGradient id="paint0_linear_3_59" x1="534" y1="41" x2="534" y2="196" gradientUnits="userSpaceOnUse">
<stop offset="0.0833333"/>
<stop offset="1" stop-color="#6CB413"/>
</linearGradient>
<linearGradient id="paint1_linear_3_59" x1="333.5" y1="41" x2="333.5" y2="196" gradientUnits="userSpaceOnUse">
<stop stop-color="#74C313"/>
<stop offset="1"/>
</linearGradient>
</defs>
</svg>
